#define brain_width 100
#define brain_height 101
static unsigned char brain_bits[] = {
   0x00, 0x00, 0x00, 0x00, 0x00, 0x00, 0x00, 0x00, 0x00, 0x00, 0x00, 0x00,
   0x00, 0x00, 0x00, 0x00, 0x00, 0x00, 0x00, 0x00, 0x00, 0x00, 0x00, 0x00,
   0x00, 0x00, 0x00, 0x00, 0x00, 0x00, 0x00, 0x00, 0x00, 0x00, 0x00, 0x00,
   0x00, 0x00, 0x00, 0x00, 0x00, 0x00, 0x00, 0x00, 0x00, 0x00, 0x00, 0x00,
   0x00, 0x00, 0x00, 0x00, 0x00, 0x00, 0x00, 0x00, 0x00, 0x00, 0x00, 0x00,
   0x00, 0x00, 0x00, 0x00, 0x00, 0x00, 0x00, 0x00, 0x00, 0x00, 0x00, 0x00,
   0x00, 0x00, 0x00, 0x00, 0x00, 0x00, 0x00, 0x00, 0x00, 0x00, 0x00, 0x00,
   0x00, 0x00, 0x00, 0x00, 0x00, 0x00, 0x00, 0x00, 0x00, 0x00, 0x00, 0x00,
   0x00, 0x00, 0x00, 0x00, 0x00, 0x00, 0x00, 0x00, 0x00, 0x00, 0x00, 0x00,
   0x00, 0xfe, 0x0f, 0x00, 0x00, 0x00, 0x00, 0x00, 0x00, 0x00, 0x00, 0x00,
   0x00, 0x80, 0xff, 0x3f, 0x00, 0x00, 0x00, 0x00, 0x00, 0x00, 0x00, 0x00,
   0x00, 0x00, 0xe0, 0xff, 0xff, 0x00, 0x00, 0x00, 0x00, 0x00, 0x00, 0x00,
   0x00, 0x00, 0x00, 0xf0, 0xff, 0xff, 0xc1, 0x7f, 0x00, 0x00, 0x00, 0x00,
   0x00, 0x00, 0x00, 0x00, 0xf8, 0xff, 0xff, 0xff, 0xff, 0x07, 0x00, 0x00,
   0x00, 0x00, 0x00, 0x00, 0x00, 0xfc, 0x0f, 0xfe, 0xff, 0xff, 0x1f, 0x00,
   0x00, 0x00, 0x00, 0x00, 0x00, 0xfc, 0xff, 0x01, 0xf0, 0xff, 0xff, 0x7f,
   0x00, 0x00, 0x00, 0x00, 0x00, 0x80, 0xff, 0x7f, 0x00, 0xe0, 0xff, 0xff,
   0xff, 0x01, 0x00, 0x00, 0x00, 0x00, 0xc0, 0xff, 0x3f, 0x00, 0xf0, 0xff,
   0xff, 0xff, 0x03, 0x00, 0x00, 0x00, 0x00, 0xf0, 0xff, 0x1f, 0x00, 0xf8,
   0x0f, 0x00, 0xff, 0x07, 0x00, 0x00, 0x00, 0x00, 0xf8, 0xff, 0x1f, 0x00,
   0xfc, 0x03, 0x00, 0xf8, 0x0f, 0x00, 0x00, 0x00, 0x00, 0xfc, 0x1f, 0x0c,
   0x00, 0xfe, 0x01, 0x00, 0xe0, 0x1f, 0x00, 0x00, 0x00, 0x00, 0xfe, 0x03,
   0x00, 0xc6, 0xff, 0x00, 0x00, 0xc0, 0x3f, 0x00, 0x00, 0x00, 0x00, 0xfe,
   0x00, 0x00, 0xfe, 0x7f, 0x00, 0x00, 0x80, 0x3f, 0x00, 0x00, 0x00, 0x00,
   0x7f, 0x00, 0x00, 0xfe, 0x3f, 0x00, 0x00, 0x00, 0x7f, 0x00, 0x00, 0x00,
   0x00, 0x3f, 0x00, 0x00, 0xff, 0x1f, 0x00, 0x00, 0x00, 0xfe, 0x00, 0x00,
   0x00, 0x80, 0x1f, 0x00, 0x00, 0xff, 0x0f, 0x00, 0x00, 0x00, 0xfc, 0x00,
   0x00, 0x00, 0xc0, 0x1f, 0x00, 0x00, 0xff, 0x07, 0x00, 0x00, 0x00, 0xfc,
   0x01, 0x00, 0x00, 0xf0, 0x0f, 0x00, 0x00, 0xf0, 0x03, 0x00, 0x00, 0x00,
   0xf8, 0x01, 0x00, 0x00, 0xf8, 0x0f, 0x00, 0x00, 0xf0, 0x03, 0x00, 0x00,
   0x00, 0xf8, 0x01, 0x00, 0x00, 0xfe, 0x0f, 0x00, 0x00, 0xf0, 0x03, 0x00,
   0x00, 0x00, 0xf0, 0x03, 0x00, 0x00, 0xff, 0x0f, 0x00, 0x00, 0xf0, 0x01,
   0x00, 0x00, 0x00, 0xf0, 0x07, 0x00, 0x80, 0xff, 0x01, 0x00, 0x00, 0xf0,
   0x01, 0x00, 0x00, 0xe0, 0xf1, 0x0f, 0x00, 0x80, 0x3f, 0x00, 0x00, 0x00,
   0xf0, 0x01, 0x00, 0x00, 0xf0, 0xf3, 0x1f, 0x00, 0xc0, 0x1f, 0x00, 0x00,
   0x00, 0xf0, 0x03, 0x00, 0x00, 0xf0, 0xc3, 0x3f, 0x00, 0xe0, 0x0f, 0x00,
   0x00, 0x00, 0xf0, 0x03, 0x00, 0x00, 0xf0, 0x83, 0x7f, 0x00, 0xe0, 0x07,
   0x00, 0x00, 0x00, 0xf0, 0x03, 0x00, 0x00, 0xe0, 0x03, 0x7f, 0x00, 0xe0,
   0x07, 0x00, 0x00, 0x00, 0xf0, 0x03, 0x00, 0x00, 0xe0, 0x03, 0xfe, 0x00,
   0xf0, 0x03, 0x00, 0x00, 0x00, 0xe0, 0x03, 0x00, 0x00, 0xe0, 0x03, 0xfc,
   0x00, 0xf0, 0x03, 0x00, 0x00, 0x00, 0x00, 0x00, 0x00, 0x00, 0xe0, 0x07,
   0xf8, 0x00, 0xf0, 0x03, 0x00, 0x00, 0x00, 0x00, 0x00, 0x00, 0x00, 0xe0,
   0x07, 0xf8, 0x01, 0xf0, 0x01, 0x00, 0x00, 0x00, 0x00, 0x00, 0x00, 0x00,
   0xc0, 0x07, 0xf8, 0x01, 0xf0, 0x01, 0x00, 0x00, 0x00, 0x00, 0x00, 0x00,
   0xfe, 0xc3, 0x0f, 0xf8, 0x01, 0xf0, 0x03, 0x00, 0x00, 0x00, 0x00, 0x00,
   0x00, 0xfe, 0xff, 0x1f, 0xf8, 0x01, 0xf0, 0x03, 0x00, 0x00, 0x00, 0x00,
   0x00, 0x00, 0xfe, 0xff, 0x1f, 0xf8, 0x01, 0xf0, 0x03, 0x00, 0x00, 0x00,
   0x00, 0x00, 0x00, 0xfe, 0xff, 0x3f, 0xf8, 0x01, 0xe0, 0x03, 0x10, 0x00,
   0x00, 0x00, 0x00, 0x00, 0xfe, 0xff, 0x7f, 0xf8, 0x01, 0xe0, 0x07, 0x70,
   0x00, 0x20, 0x00, 0x00, 0x00, 0xf8, 0xff, 0xff, 0xf8, 0x00, 0xe0, 0x07,
   0xf8, 0x01, 0x78, 0x00, 0x00, 0x00, 0x00, 0x80, 0xff, 0xfd, 0x00, 0xe0,
   0x03, 0xf8, 0x03, 0x7c, 0x00, 0x00, 0x00, 0x00, 0x00, 0xfc, 0xff, 0x00,
   0xf0, 0x03, 0xfc, 0x0f, 0xfe, 0x00, 0x00, 0x00, 0x00, 0x00, 0xf0, 0x7f,
   0x00, 0xf0, 0x03, 0xf8, 0x3f, 0xff, 0x00, 0x00, 0x00, 0x00, 0x00, 0xe0,
   0x7f, 0x00, 0xf0, 0x03, 0xe0, 0x7f, 0x7f, 0x00, 0x00, 0x00, 0x00, 0x00,
   0xc0, 0x3f, 0x00, 0xf0, 0x01, 0xc0, 0xff, 0x3f, 0x00, 0x00, 0x00, 0x00,
   0x00, 0x80, 0x1f, 0x00, 0xf0, 0x01, 0x00, 0xff, 0x1f, 0x00, 0x00, 0x00,
   0x00, 0x00, 0x80, 0x1f, 0x00, 0xf0, 0x03, 0x00, 0xfc, 0x1f, 0x00, 0x00,
   0x00, 0x00, 0x00, 0x00, 0x1f, 0x00, 0xf0, 0x03, 0x00, 0xf8, 0x0f, 0x00,
   0x00, 0x00, 0x00, 0x00, 0x00, 0x1f, 0x00, 0xf0, 0x03, 0x00, 0xf0, 0x0f,
   0x00, 0x00, 0x00, 0xf0, 0x0f, 0x00, 0x1f, 0x00, 0xe0, 0x07, 0x00, 0xe0,
   0x0f, 0x00, 0x00, 0x00, 0xfe, 0x1f, 0x00, 0x1f, 0x00, 0xe0, 0x07, 0x00,
   0xe0, 0x0f, 0x00, 0x00, 0x00, 0xff, 0x1f, 0x00, 0x1f, 0x00, 0xe0, 0x0f,
   0x00, 0xc0, 0x0f, 0x00, 0x00, 0xc0, 0xff, 0x0f, 0x80, 0x1f, 0x00, 0xc0,
   0x1f, 0x00, 0xc0, 0x0f, 0x00, 0x00, 0xe0, 0xff, 0x0f, 0x80, 0x1f, 0x00,
   0x80, 0x3f, 0x00, 0xc0, 0x0f, 0x00, 0x00, 0xf0, 0x1f, 0x0c, 0x80, 0x1f,
   0x00, 0x80, 0xff, 0x00, 0xc0, 0x0f, 0x00, 0x00, 0xf8, 0x07, 0x00, 0xc0,
   0x0f, 0x00, 0x00, 0xff, 0x01, 0xc0, 0x0f, 0x00, 0x00, 0xfe, 0x03, 0x00,
   0xe0, 0x0f, 0x00, 0x00, 0xfe, 0x07, 0xc0, 0x0f, 0x00, 0x00, 0xff, 0x01,
   0x00, 0xf0, 0x07, 0x00, 0x00, 0xf8, 0x1f, 0xf0, 0x1f, 0x00, 0x80, 0x7f,
   0x00, 0x00, 0xfc, 0x07, 0x00, 0x00, 0xf0, 0xff, 0xff, 0x1f, 0x00, 0xe0,
   0x3f, 0x00, 0x00, 0xfe, 0x03, 0x00, 0x00, 0xe0, 0xff, 0xff, 0x7f, 0x00,
   0xf0, 0x1f, 0x00, 0x00, 0xff, 0x01, 0x00, 0x00, 0x80, 0xff, 0xff, 0xff,
   0x00, 0xfc, 0x07, 0x00, 0x00, 0xff, 0x00, 0x00, 0x00, 0x00, 0xff, 0xff,
   0xff, 0x8f, 0xff, 0x07, 0x00, 0x80, 0x3f, 0x00, 0x00, 0x00, 0x00, 0xf8,
   0x3f, 0xfe, 0xff, 0xff, 0x1f, 0x00, 0xe0, 0x1f, 0x00, 0x00, 0x00, 0x00,
   0x00, 0x00, 0xf8, 0xff, 0xff, 0xff, 0x03, 0xfc, 0x0f, 0x00, 0x00, 0x00,
   0x00, 0x00, 0x00, 0xf0, 0xff, 0xff, 0xff, 0x07, 0xff, 0x07, 0x00, 0x00,
   0x00, 0x00, 0x00, 0x00, 0xc0, 0xff, 0x8f, 0xff, 0x0f, 0xfe, 0x03, 0x00,
   0x00, 0x00, 0x00, 0x00, 0x00, 0x00, 0xfe, 0x03, 0xff, 0x1f, 0xfe, 0x01,
   0x00, 0x00, 0x00, 0x00, 0x00, 0x00, 0x00, 0x00, 0x00, 0xf8, 0x3f, 0xfe,
   0x00, 0x00, 0x00, 0x00, 0x00, 0x00, 0x00, 0x00, 0x00, 0x00, 0xc0, 0x7f,
   0xfc, 0x00, 0x00, 0x00, 0x00, 0x00, 0x00, 0x00, 0x00, 0x00, 0x00, 0x00,
   0xff, 0xfc, 0x00, 0x00, 0x00, 0x00, 0x00, 0x00, 0x00, 0x00, 0x00, 0x00,
   0x00, 0xfe, 0xfc, 0x00, 0x00, 0x00, 0x00, 0x00, 0x00, 0x00, 0x00, 0x00,
   0x00, 0x00, 0xfc, 0xf9, 0x01, 0x00, 0x00, 0x00, 0x00, 0x00, 0x00, 0x00,
   0x00, 0x00, 0x00, 0xf8, 0xfb, 0x01, 0x00, 0x00, 0x00, 0x00, 0x00, 0x00,
   0x00, 0x00, 0x00, 0x00, 0xf0, 0xff, 0x01, 0x00, 0x00, 0x00, 0x00, 0x00,
   0x00, 0x00, 0x00, 0x00, 0x00, 0xe0, 0xff, 0x03, 0x00, 0x00, 0x00, 0x00,
   0x00, 0x00, 0x00, 0x00, 0x00, 0x00, 0xe0, 0xff, 0x03, 0x00, 0x00, 0x00,
   0x00, 0x00, 0x00, 0x00, 0x00, 0x00, 0x00, 0xc0, 0xff, 0x03, 0x00, 0x00,
   0x00, 0x00, 0x00, 0x00, 0x00, 0x00, 0x00, 0x00, 0x80, 0xff, 0x07, 0x00,
   0x00, 0x00, 0x00, 0x00, 0x00, 0x00, 0x00, 0x00, 0x00, 0x00, 0xff, 0x07,
   0x00, 0x00, 0x00, 0x00, 0x00, 0x00, 0x00, 0x00, 0x00, 0x00, 0x00, 0xff,
   0x07, 0x00, 0x00, 0x00, 0x00, 0x00, 0x00, 0x00, 0x00, 0x00, 0x00, 0x00,
   0xfe, 0x07, 0x00, 0x00, 0x00, 0x00, 0x00, 0x00, 0x00, 0x00, 0x00, 0x00,
   0x00, 0xfc, 0x01, 0x00, 0x00, 0x00, 0x00, 0x00, 0x00, 0x00, 0x00, 0x00,
   0x00, 0x00, 0xfc, 0x00, 0x00, 0x00, 0x00, 0x00, 0x00, 0x00, 0x00, 0x00,
   0x00, 0x00, 0x00, 0x78, 0x00, 0x00, 0x00, 0x00, 0x00, 0x00, 0x00, 0x00,
   0x00, 0x00, 0x00, 0x00, 0x18, 0x00, 0x00, 0x00, 0x00, 0x00, 0x00, 0x00,
   0x00, 0x00, 0x00, 0x00, 0x00, 0x00, 0x00, 0x00, 0x00, 0x00, 0x00, 0x00,
   0x00, 0x00, 0x00, 0x00, 0x00, 0x00, 0x00, 0x00, 0x00, 0x00, 0x00, 0x00,
   0x00, 0x00, 0x00, 0x00, 0x00, 0x00, 0x00, 0x00, 0x00, 0x00, 0x00, 0x00,
   0x00, 0x00, 0x00, 0x00, 0x00, 0x00, 0x00, 0x00, 0x00, 0x00, 0x00, 0x00,
   0x00, 0x00, 0x00, 0x00, 0x00, 0x00, 0x00, 0x00, 0x00, 0x00, 0x00, 0x00,
   0x00, 0x00, 0x00, 0x00, 0x00, 0x00, 0x00, 0x00, 0x00, 0x00, 0x00, 0x00,
   0x00, 0x00, 0x00, 0x00, 0x00, 0x00, 0x00, 0x00, 0x00, 0x00, 0x00, 0x00,
   0x00, 0x00, 0x00, 0x00, 0x00, 0x00, 0x00, 0x00, 0x00, 0x00, 0x00, 0x00,
   0x00, 0x00, 0x00, 0x00, 0x00, 0x00, 0x00, 0x00, 0x00, 0x00, 0x00, 0x00,
   0x00, 0x00, 0x00, 0x00, 0x00 };
